<svg xmlns="http://www.w3.org/2000/svg" width="700" height="255.618" viewBox="0 0 700 255.618">
  <g id="Grupo_3" data-name="Grupo 3" transform="translate(-610 -412.191)">
    <path id="Caminho_9" data-name="Caminho 9" d="M668.989,471.18a19.663,19.663,0,0,1-19.663-19.663V431.854a19.663,19.663,0,0,0-19.663-19.663h0A19.662,19.662,0,0,0,610,431.854v19.663c0,.339.02.674.026,1.012a58.978,58.978,0,0,0,58.963,57.977h0a19.663,19.663,0,0,1,19.663,19.663v58.988a19.663,19.663,0,1,0,39.325,0V530.169c0-.34-.019-.674-.025-1.012A58.978,58.978,0,0,0,668.989,471.18Zm-39.326,49.157h0A19.662,19.662,0,0,0,610,540v49.157a19.662,19.662,0,0,0,19.663,19.663h0a19.663,19.663,0,0,0,19.663-19.663V540A19.663,19.663,0,0,0,629.663,520.337ZM948.2,471.18a58.978,58.978,0,0,0-58.963,57.977c-.006.338-.025.672-.025,1.012v58.988a19.663,19.663,0,1,0,39.325,0V530.169A19.663,19.663,0,0,1,948.2,510.506a19.663,19.663,0,0,0,0-39.326Zm165.169,0a58.737,58.737,0,0,0-39.326,15.029,58.97,58.97,0,0,0-98.289,42.948c-.006.338-.026.672-.026,1.012v58.988a19.663,19.663,0,0,0,19.663,19.663h0a19.662,19.662,0,0,0,19.663-19.663V530.169a19.663,19.663,0,1,1,39.326,0v58.988a19.663,19.663,0,1,0,39.326,0V530.169a19.663,19.663,0,0,1,39.326,0v58.988A19.662,19.662,0,0,0,1152.7,608.82h0a19.663,19.663,0,0,0,19.663-19.663V530.169c0-.34-.02-.674-.026-1.012A58.978,58.978,0,0,0,1113.371,471.18Zm176.966,0a19.663,19.663,0,0,0-19.663,19.663V540A19.663,19.663,0,1,0,1310,540V490.843A19.662,19.662,0,0,0,1290.337,471.18Zm-39.326,98.314h0a19.663,19.663,0,0,1-19.663-19.663V490.843a19.663,19.663,0,0,0-39.326,0v58.989c0,.339.02.673.026,1.011a58.978,58.978,0,0,0,58.961,57.977h0a19.663,19.663,0,0,1,19.663,19.663v19.663a19.663,19.663,0,1,0,39.326,0V628.483c0-.339-.02-.674-.026-1.012A58.978,58.978,0,0,0,1251.011,569.494Z" fill="#0047ff"/>
    <path id="Caminho_10" data-name="Caminho 10" d="M855.762,574.424a19.664,19.664,0,0,0-25.2-11.752l-73.908,26.9a19.664,19.664,0,0,0-11.752,25.2h0a19.663,19.663,0,0,0,25.2,11.752l73.909-26.9a19.663,19.663,0,0,0,11.752-25.2Zm36.954-128.15h0a19.662,19.662,0,0,0-25.2-11.752l-110.863,40.35a19.663,19.663,0,0,0-11.752,25.2h0a19.664,19.664,0,0,0,25.2,11.752l110.863-40.351A19.663,19.663,0,0,0,892.716,446.274Zm-18.477,64.289a19.664,19.664,0,0,0-25.2-11.752l-92.386,33.626a19.662,19.662,0,0,0-11.752,25.2h0a19.663,19.663,0,0,0,25.2,11.752l92.386-33.626a19.663,19.663,0,0,0,11.752-25.2Z" fill="#00d2b2"/>
  </g>
</svg>